<?xml version="1.0" standalone="no"?>
<!DOCTYPE svg PUBLIC "-//W3C//DTD SVG 20010904//EN"
 "http://www.w3.org/TR/2001/REC-SVG-20010904/DTD/svg10.dtd">
<svg version="1.0" xmlns="http://www.w3.org/2000/svg"
 width="1536.000000pt" height="1536.000000pt" viewBox="0 0 1536.000000 1536.000000"
 preserveAspectRatio="xMidYMid meet">
<metadata>
Created by potrace 1.11, written by Peter Selinger 2001-2013
</metadata>
<g transform="translate(0.000000,1536.000000) scale(0.100000,-0.100000)"
fill="#000000" stroke="none">
<path d="M7548 14995 c-1 -2 -27 -6 -57 -10 -104 -13 -215 -55 -348 -131 -26
-15 -56 -34 -65 -42 -10 -8 -18 -11 -18 -7 0 4 -8 2 -17 -6 -10 -8 -29 -20
-43 -28 -14 -8 -180 -104 -370 -214 -190 -110 -358 -208 -375 -217 -16 -9
-194 -112 -395 -227 -201 -116 -381 -220 -400 -231 -19 -11 -107 -61 -195
-112 -88 -51 -331 -191 -540 -312 -209 -120 -387 -223 -395 -228 -8 -5 -46
-27 -85 -49 -38 -22 -92 -54 -120 -69 -27 -16 -66 -38 -85 -49 -19 -11 -240
-139 -490 -283 -250 -145 -471 -272 -490 -283 -19 -10 -64 -36 -100 -57 -36
-21 -81 -47 -100 -58 -19 -11 -145 -84 -280 -162 -135 -78 -268 -155 -296
-171 -265 -147 -347 -202 -430 -286 -130 -131 -229 -318 -273 -513 -3 -14 -7
-1404 -9 -3090 -2 -2230 0 -3085 8 -3137 42 -267 205 -522 428 -666 37 -24
108 -66 157 -94 100 -57 461 -264 1055 -608 217 -125 409 -236 425 -245 65
-37 308 -177 460 -265 88 -51 178 -103 199 -115 21 -12 107 -61 190 -109 83
-48 257 -149 386 -223 129 -75 249 -144 267 -154 18 -11 78 -46 135 -78 57
-33 171 -99 255 -147 159 -93 173 -101 293 -169 41 -24 138 -79 215 -124 77
-45 151 -87 165 -94 67 -35 62 4 64 -474 1 -419 2 -434 22 -478 83 -176 321
-208 441 -58 55 67 60 103 59 401 -1 147 0 267 1 267 1 0 60 -33 130 -73 71
-41 171 -98 223 -129 85 -49 168 -86 226 -102 20 -6 20 -11 20 -449 1 -336 4
-452 14 -482 20 -63 67 -120 123 -151 44 -25 63 -29 127 -29 87 1 133 20 191
82 71 75 71 75 71 575 l1 446 64 22 c35 12 95 39 133 61 38 21 72 39 75 39 3
0 11 5 18 10 19 17 288 170 298 170 5 0 10 -115 10 -262 1 -145 2 -267 3 -273
17 -98 99 -189 189 -212 12 -3 48 -5 79 -5 95 -1 181 56 229 150 l24 47 0 434
1 434 32 17 c17 10 37 22 44 27 7 6 40 25 73 43 33 17 65 35 70 40 6 4 30 19
55 32 25 14 176 101 335 193 160 92 307 177 328 189 21 11 53 30 71 41 43 25
182 105 218 125 15 8 190 110 389 225 199 116 387 224 418 241 31 17 118 68
195 113 76 44 140 81 142 81 3 0 21 11 42 24 31 20 1589 919 1647 951 11 5 31
17 45 26 14 9 68 41 120 71 240 141 403 371 465 658 12 55 14 525 15 3120 0
2089 -3 3075 -11 3120 -31 195 -136 396 -281 540 -75 74 -127 111 -314 218
-78 44 -160 92 -183 106 -22 14 -43 26 -45 26 -2 0 -39 20 -80 45 -42 25 -81
45 -86 45 -6 0 -10 5 -10 10 0 6 -4 10 -9 10 -8 0 -104 54 -416 235 -111 64
-1242 718 -1290 745 -86 49 -732 422 -945 545 -135 78 -270 155 -300 172 -30
17 -116 67 -191 110 -74 44 -142 83 -150 87 -8 4 -23 12 -34 19 -34 21 -212
124 -860 498 -137 79 -259 149 -270 156 -11 7 -27 15 -35 19 -8 4 -32 18 -53
31 -98 61 -232 117 -307 129 -19 3 -55 10 -80 14 -43 8 -244 12 -252 5z m678
-1040 c556 -321 546 -315 629 -362 33 -19 76 -43 95 -55 49 -28 1237 -714
1445 -833 94 -54 199 -115 234 -137 34 -21 64 -38 66 -38 2 0 128 -73 281
-161 154 -89 299 -173 324 -187 25 -14 86 -48 135 -77 50 -29 106 -62 125 -73
19 -10 122 -70 228 -131 106 -61 207 -120 225 -130 17 -10 135 -78 260 -150
126 -73 244 -141 263 -152 19 -10 49 -28 68 -38 18 -11 64 -38 101 -60 37 -23
69 -41 70 -41 10 0 133 -76 153 -94 13 -11 34 -41 47 -66 l23 -45 0 -2994 c0
-2088 -3 -3004 -11 -3025 -29 -84 -39 -92 -454 -332 -218 -126 -422 -243 -452
-260 -31 -18 -171 -98 -311 -180 -140 -81 -272 -157 -292 -168 -20 -12 -98
-57 -174 -101 -145 -84 -165 -96 -284 -163 -41 -24 -91 -52 -110 -64 -83 -49
-724 -419 -1008 -582 -68 -39 -137 -79 -154 -89 -75 -45 -298 -172 -348 -200
-30 -16 -59 -33 -65 -37 -21 -16 -276 -160 -283 -160 -17 0 -4 1302 13 1330 2
4 7 29 11 56 3 27 8 52 11 56 2 5 6 16 8 26 41 214 219 662 433 1087 192 381
520 957 747 1310 17 28 76 120 131 205 54 85 149 231 212 323 62 93 132 208
157 256 108 215 201 470 259 707 32 133 38 161 52 252 3 20 7 44 9 52 2 8 7
42 11 75 3 33 8 69 10 80 22 114 22 640 0 747 -3 13 -8 50 -11 83 -3 33 -14
110 -26 170 -89 477 -257 892 -524 1295 -139 209 -250 345 -435 531 -451 454
-993 763 -1610 919 -447 113 -909 134 -1385 65 -109 -16 -108 -16 -210 -39
-38 -9 -80 -19 -92 -21 -116 -26 -398 -119 -500 -166 -24 -10 -45 -19 -47 -19
-9 0 -210 -99 -291 -143 -399 -216 -790 -552 -1087 -935 -79 -101 -210 -301
-281 -428 -49 -88 -76 -144 -154 -313 -85 -187 -199 -567 -228 -761 -3 -19 -7
-46 -10 -60 -44 -244 -54 -701 -20 -950 3 -19 7 -55 10 -80 14 -121 76 -404
116 -530 25 -78 77 -227 89 -255 5 -11 28 -65 51 -120 66 -156 104 -221 291
-505 150 -228 350 -540 383 -597 6 -10 69 -117 141 -238 72 -121 143 -240 156
-265 14 -25 42 -74 63 -110 38 -67 78 -140 171 -314 257 -477 485 -1023 550
-1311 20 -90 35 -175 40 -222 4 -45 8 -1026 5 -1215 l-1 -36 -90 53 c-49 30
-122 73 -162 95 -40 23 -86 49 -103 59 -65 39 -423 246 -475 274 -30 17 -83
48 -118 69 -34 21 -64 38 -66 38 -4 0 -318 182 -346 200 -8 5 -28 17 -45 26
-16 9 -221 127 -455 262 -234 135 -652 376 -930 537 -1195 689 -1082 621
-1120 677 l-35 51 -1 3008 c-1 2935 0 3010 18 3052 28 62 51 82 171 150 60 34
123 70 140 81 18 10 79 45 137 79 58 33 119 68 135 78 17 11 37 22 45 26 8 4
47 26 85 48 39 23 90 53 115 67 52 29 408 234 430 247 8 6 58 34 110 64 52 30
210 121 350 202 140 82 271 157 290 168 47 26 514 296 715 412 88 51 177 102
198 114 41 23 309 178 417 241 60 35 840 486 937 541 23 13 140 80 259 149
119 69 235 136 258 148 22 13 57 33 76 44 165 97 365 211 383 218 12 4 47 7
78 6 54 -3 79 -16 555 -291z m-191 -2704 c486 -87 912 -304 1251 -639 354
-349 581 -786 665 -1282 19 -110 23 -174 23 -345 1 -226 -4 -302 -29 -435 -63
-332 -142 -526 -331 -810 -156 -234 -258 -391 -263 -405 -2 -5 -16 -28 -31
-50 -15 -22 -90 -143 -167 -270 -546 -895 -906 -1621 -1094 -2205 -48 -149
-92 -308 -104 -379 -3 -19 -8 -37 -10 -40 -2 -4 -6 -25 -9 -47 -4 -22 -8 -51
-11 -64 -7 -38 -24 -176 -31 -260 -3 -41 -7 -76 -8 -77 -1 -1 -2 744 -2 1656
l0 1658 126 1 c69 0 130 1 137 1 13 1 10 -4 293 486 112 193 207 356 212 363
12 14 27 14 -262 14 -273 0 -257 1 -264 -19 -3 -10 -14 -31 -24 -48 -11 -16
-28 -46 -39 -65 -61 -106 -140 -240 -154 -260 -15 -23 -16 -23 -252 -23 -131
0 -239 2 -241 4 -1 2 -53 92 -115 199 -62 107 -116 199 -121 204 -7 7 -357 12
-492 7 -26 -1 -25 -4 79 -183 58 -101 115 -201 128 -223 13 -22 77 -134 144
-249 l120 -209 138 0 138 0 0 -1624 c0 -892 -3 -1623 -7 -1623 -5 0 -8 19 -9
43 0 23 -2 51 -4 62 -1 11 -6 45 -9 75 -9 79 -15 114 -37 215 -11 50 -22 98
-24 107 -23 107 -120 419 -163 524 -11 27 -37 92 -57 144 -69 173 -218 502
-309 680 -98 191 -179 343 -282 528 -13 23 -36 63 -51 90 -161 289 -587 976
-802 1295 -102 151 -125 195 -185 347 -63 161 -99 289 -121 420 -3 19 -7 46
-10 60 -31 166 -37 510 -11 646 2 11 7 39 10 64 22 160 79 366 147 530 245
589 711 1046 1309 1284 108 42 334 107 425 120 22 3 56 9 75 12 167 29 535 26
715 -5z m-600 -7281 c2 -12 1 -20 -2 -16 -4 4 -8 16 -10 28 -4 28 6 18 12 -12z
m452 -62 c-3 -8 -6 -5 -6 6 -1 11 2 17 5 13 3 -3 4 -12 1 -19z"/>
</g>
</svg>
